<svg width="117" height="30" viewBox="0 0 117 30" fill="none" xmlns="http://www.w3.org/2000/svg">
<path d="M18.6667 10.3333V16.1667C18.6667 17.0949 19.0354 17.9852 19.6918 18.6415C20.3482 19.2979 21.2384 19.6667 22.1667 19.6667C23.0949 19.6667 23.9852 19.2979 24.6415 18.6415C25.2979 17.9852 25.6667 17.0949 25.6667 16.1667V15C25.6667 12.3718 24.7793 9.82069 23.1483 7.75985C21.5173 5.69902 19.2383 4.24924 16.6804 3.64542C14.1226 3.04159 11.4358 3.3191 9.05539 4.43297C6.67496 5.54684 4.74035 7.43181 3.56501 9.7825C2.38967 12.1332 2.04245 14.8119 2.57961 17.3845C3.11677 19.9572 4.50684 22.2731 6.52461 23.9571C8.54237 25.6411 11.0696 26.5944 13.6969 26.6627C16.3241 26.731 18.8975 25.9102 21 24.3333M18.6667 15C18.6667 17.5773 16.5773 19.6667 14 19.6667C11.4227 19.6667 9.33333 17.5773 9.33333 15C9.33333 12.4227 11.4227 10.3333 14 10.3333C16.5773 10.3333 18.6667 12.4227 18.6667 15Z" stroke="#DCFCE7" stroke-width="2" stroke-linecap="round" stroke-linejoin="round"/>
<path d="M37.68 24V11.304H40.968L41.04 13.728L40.536 13.824C40.712 13.408 40.944 13.032 41.232 12.696C41.52 12.36 41.856 12.072 42.24 11.832C42.64 11.592 43.056 11.408 43.488 11.28C43.92 11.136 44.352 11.064 44.784 11.064C45.44 11.064 46.032 11.168 46.56 11.376C47.088 11.584 47.536 11.912 47.904 12.36C48.272 12.792 48.56 13.368 48.768 14.088L48.24 14.04L48.408 13.656C48.616 13.272 48.88 12.928 49.2 12.624C49.52 12.304 49.88 12.032 50.28 11.808C50.68 11.568 51.096 11.384 51.528 11.256C51.96 11.128 52.384 11.064 52.8 11.064C53.792 11.064 54.616 11.264 55.272 11.664C55.928 12.048 56.416 12.632 56.736 13.416C57.072 14.2 57.24 15.16 57.24 16.296V24H53.832V16.536C53.832 15.96 53.752 15.488 53.592 15.12C53.432 14.752 53.2 14.48 52.896 14.304C52.592 14.112 52.2 14.016 51.72 14.016C51.352 14.016 51.008 14.08 50.688 14.208C50.384 14.32 50.112 14.488 49.872 14.712C49.648 14.92 49.472 15.168 49.344 15.456C49.216 15.744 49.152 16.064 49.152 16.416V24H45.744V16.512C45.744 15.984 45.656 15.536 45.48 15.168C45.32 14.784 45.088 14.496 44.784 14.304C44.48 14.112 44.104 14.016 43.656 14.016C43.288 14.016 42.944 14.08 42.624 14.208C42.32 14.32 42.056 14.488 41.832 14.712C41.608 14.92 41.424 15.168 41.28 15.456C41.152 15.744 41.088 16.056 41.088 16.392V24H37.68ZM65.2373 24.24C64.1813 24.24 63.2293 23.952 62.3813 23.376C61.5333 22.8 60.8613 22.016 60.3652 21.024C59.8692 20.032 59.6213 18.896 59.6213 17.616C59.6213 16.336 59.8692 15.208 60.3652 14.232C60.8773 13.24 61.5653 12.464 62.4293 11.904C63.2933 11.328 64.2773 11.04 65.3813 11.04C66.0053 11.04 66.5733 11.136 67.0853 11.328C67.6133 11.504 68.0693 11.752 68.4533 12.072C68.8533 12.392 69.1893 12.76 69.4613 13.176C69.7333 13.592 69.9253 14.04 70.0373 14.52L69.3173 14.4V11.304H72.7013V24H69.2693V20.952L70.0373 20.88C69.9093 21.328 69.7013 21.752 69.4133 22.152C69.1253 22.552 68.7653 22.912 68.3333 23.232C67.9173 23.536 67.4453 23.784 66.9173 23.976C66.3893 24.152 65.8293 24.24 65.2373 24.24ZM66.1733 21.288C66.8133 21.288 67.3733 21.136 67.8533 20.832C68.3333 20.528 68.7013 20.104 68.9573 19.56C69.2293 19 69.3653 18.352 69.3653 17.616C69.3653 16.896 69.2293 16.264 68.9573 15.72C68.7013 15.176 68.3333 14.752 67.8533 14.448C67.3733 14.128 66.8133 13.968 66.1733 13.968C65.5493 13.968 64.9973 14.128 64.5173 14.448C64.0533 14.752 63.6853 15.176 63.4133 15.72C63.1413 16.264 63.0053 16.896 63.0053 17.616C63.0053 18.352 63.1413 19 63.4133 19.56C63.6853 20.104 64.0533 20.528 64.5173 20.832C64.9973 21.136 65.5493 21.288 66.1733 21.288ZM76.4061 24V11.304H79.8141V24H76.4061ZM78.0861 8.688C77.4301 8.688 76.9181 8.528 76.5501 8.208C76.1821 7.888 75.9981 7.432 75.9981 6.84C75.9981 6.296 76.1821 5.856 76.5501 5.52C76.9341 5.168 77.4461 4.992 78.0861 4.992C78.7421 4.992 79.2541 5.16 79.6221 5.496C79.9901 5.816 80.1741 6.264 80.1741 6.84C80.1741 7.4 79.9821 7.848 79.5981 8.184C79.2301 8.52 78.7261 8.688 78.0861 8.688ZM83.478 24V6.24H86.886V24H83.478ZM91.6166 24.264C90.9926 24.264 90.5126 24.088 90.1766 23.736C89.8406 23.384 89.6726 22.88 89.6726 22.224C89.6726 21.632 89.8486 21.152 90.2006 20.784C90.5686 20.4 91.0406 20.208 91.6166 20.208C92.2246 20.208 92.6966 20.384 93.0326 20.736C93.3686 21.088 93.5366 21.584 93.5366 22.224C93.5366 22.832 93.3606 23.328 93.0086 23.712C92.6566 24.08 92.1926 24.264 91.6166 24.264ZM96.5623 24V11.304H99.9703V24H96.5623ZM98.2423 8.688C97.5863 8.688 97.0743 8.528 96.7063 8.208C96.3383 7.888 96.1543 7.432 96.1543 6.84C96.1543 6.296 96.3383 5.856 96.7063 5.52C97.0903 5.168 97.6023 4.992 98.2423 4.992C98.8983 4.992 99.4103 5.16 99.7783 5.496C100.146 5.816 100.33 6.264 100.33 6.84C100.33 7.4 100.138 7.848 99.7543 8.184C99.3863 8.52 98.8823 8.688 98.2423 8.688ZM103.61 24V11.304H106.874L106.97 13.896L106.298 14.184C106.474 13.608 106.786 13.088 107.234 12.624C107.698 12.144 108.25 11.76 108.89 11.472C109.53 11.184 110.202 11.04 110.906 11.04C111.866 11.04 112.666 11.232 113.306 11.616C113.962 12 114.45 12.584 114.77 13.368C115.106 14.136 115.274 15.088 115.274 16.224V24H111.866V16.488C111.866 15.912 111.786 15.432 111.626 15.048C111.466 14.664 111.218 14.384 110.882 14.208C110.562 14.016 110.162 13.936 109.682 13.968C109.298 13.968 108.938 14.032 108.602 14.16C108.282 14.272 108.002 14.44 107.762 14.664C107.538 14.888 107.354 15.144 107.21 15.432C107.082 15.72 107.018 16.032 107.018 16.368V24H105.338C104.97 24 104.642 24 104.354 24C104.066 24 103.818 24 103.61 24Z" fill="#DCFCE7"/>
</svg>
